<svg xmlns="http://www.w3.org/2000/svg" xmlns:xlink="http://www.w3.org/1999/xlink" width="100" zoomAndPan="magnify" viewBox="0 0 75 37.5" height="50" preserveAspectRatio="xMidYMid meet" version="1.0"><path fill="#ffffff" d="M 14.535156 16.53125 L 13.980469 18.019531 L 13.980469 13.050781 L 12.988281 13.050781 L 12.988281 20.6875 L 13.71875 20.6875 L 15.527344 16.53125 L 15.527344 13.050781 L 14.535156 13.050781 Z M 14.535156 16.53125 " fill-opacity="1" fill-rule="nonzero"/><path fill="#ffffff" d="M 38.632812 13.140625 L 38.636719 19.628906 L 38.632812 19.628906 C 38.632812 19.835938 38.464844 20.003906 38.261719 20.003906 C 38.054688 20.003906 37.890625 19.835938 37.890625 19.628906 L 37.886719 13.140625 L 36.894531 13.140625 L 36.898438 19.628906 L 36.894531 19.628906 C 36.894531 20.386719 37.507812 21.003906 38.261719 21.003906 C 39.015625 21.003906 39.628906 20.386719 39.628906 19.628906 L 39.625 13.140625 Z M 38.632812 13.140625 " fill-opacity="1" fill-rule="nonzero"/><path fill="#ffffff" d="M 26.53125 14.984375 L 25.679688 13.140625 L 24.929688 13.140625 L 24.929688 20.6875 L 25.921875 20.6875 L 25.921875 15.195312 L 26.53125 16.457031 L 26.53125 20.6875 L 27.523438 20.6875 L 27.523438 13.050781 L 26.53125 13.050781 Z M 26.53125 14.984375 " fill-opacity="1" fill-rule="nonzero"/><path fill="#ffffff" d="M 20.601562 16.136719 L 19.855469 16.136719 L 19.855469 14.429688 C 19.855469 14.222656 20.023438 14.054688 20.226562 14.054688 C 20.433594 14.054688 20.597656 14.222656 20.597656 14.429688 L 20.601562 14.429688 Z M 20.226562 13.050781 C 19.472656 13.050781 18.859375 13.667969 18.859375 14.429688 L 18.863281 14.429688 L 18.863281 20.6875 L 19.855469 20.6875 L 19.855469 16.964844 L 20.601562 16.964844 L 20.601562 20.6875 L 21.59375 20.6875 L 21.59375 14.429688 C 21.59375 13.667969 20.980469 13.050781 20.226562 13.050781 " fill-opacity="1" fill-rule="nonzero"/><path fill="#ffffff" d="M 32.378906 13.050781 C 31.625 13.050781 31.011719 13.667969 31.011719 14.429688 L 31.015625 19.628906 L 31.011719 19.628906 C 31.011719 20.386719 31.625 21.003906 32.378906 21.003906 C 33.132812 21.003906 33.746094 20.386719 33.746094 19.628906 L 33.746094 16.136719 L 32.246094 16.136719 L 32.246094 16.910156 L 32.753906 16.910156 L 32.753906 19.628906 L 32.75 19.628906 C 32.75 19.835938 32.585938 20.003906 32.378906 20.003906 C 32.171875 20.003906 32.007812 19.835938 32.007812 19.628906 L 32.003906 14.429688 L 32.007812 14.429688 C 32.007812 14.222656 32.171875 14.054688 32.378906 14.054688 C 32.585938 14.054688 32.75 14.222656 32.75 14.429688 L 32.753906 14.429688 L 32.753906 14.664062 L 33.746094 14.664062 L 33.746094 14.429688 C 33.746094 13.667969 33.132812 13.050781 32.378906 13.050781 " fill-opacity="1" fill-rule="nonzero"/><path fill="#ffffff" d="M 44.761719 16.136719 L 44.011719 16.136719 L 44.011719 14.429688 C 44.011719 14.222656 44.179688 14.054688 44.386719 14.054688 C 44.589844 14.054688 44.757812 14.222656 44.757812 14.429688 L 44.761719 14.429688 Z M 44.386719 13.050781 C 43.628906 13.050781 43.019531 13.667969 43.019531 14.429688 L 43.019531 20.6875 L 44.011719 20.6875 L 44.011719 16.964844 L 44.761719 16.964844 L 44.761719 20.6875 L 45.753906 20.6875 L 45.753906 14.429688 C 45.753906 13.667969 45.140625 13.050781 44.386719 13.050781 " fill-opacity="1" fill-rule="nonzero"/><path fill="#ffffff" d="M 62.242188 16.136719 L 62.242188 14.429688 C 62.242188 14.222656 62.40625 14.054688 62.613281 14.054688 C 62.820312 14.054688 62.984375 14.222656 62.984375 14.429688 L 62.988281 14.429688 L 62.988281 16.136719 Z M 62.613281 13.050781 C 61.859375 13.050781 61.246094 13.667969 61.246094 14.429688 L 61.25 14.429688 L 61.25 20.6875 L 62.242188 20.6875 L 62.242188 16.964844 L 62.988281 16.964844 L 62.988281 20.6875 L 63.980469 20.6875 L 63.980469 14.429688 C 63.980469 13.667969 63.367188 13.050781 62.613281 13.050781 " fill-opacity="1" fill-rule="nonzero"/><path fill="#ffffff" d="M 50.023438 14.429688 L 50.023438 14.015625 L 50.421875 14.015625 C 50.554688 14.015625 50.660156 14.125 50.660156 14.253906 L 50.640625 16 C 50.640625 16.058594 50.609375 16.105469 50.570312 16.136719 L 50.023438 16.136719 Z M 51.652344 13.808594 C 51.652344 13.425781 51.34375 13.117188 50.964844 13.117188 L 49.03125 13.117188 L 49.03125 20.6875 L 50.023438 20.6875 L 50.023438 17.039062 L 50.476562 17.039062 C 50.566406 17.039062 50.640625 17.113281 50.640625 17.207031 L 50.652344 20.6875 L 51.644531 20.6875 L 51.636719 17.28125 C 51.636719 17.023438 51.550781 16.789062 51.40625 16.601562 C 51.550781 16.414062 51.636719 16.183594 51.636719 15.925781 Z M 51.652344 13.808594 " fill-opacity="1" fill-rule="nonzero"/><path fill="#ffffff" d="M 56.734375 19.375 L 56.734375 19.550781 C 56.734375 19.683594 56.628906 19.789062 56.5 19.789062 L 56.097656 19.789062 L 56.097656 14.015625 L 56.5 14.015625 C 56.628906 14.015625 56.734375 14.125 56.734375 14.253906 Z M 57.042969 13.117188 L 55.105469 13.117188 L 55.105469 20.6875 L 57.042969 20.6875 C 57.421875 20.6875 57.730469 20.378906 57.730469 19.996094 L 57.722656 19.375 L 57.730469 19.375 L 57.730469 14.429688 L 57.722656 14.429688 L 57.730469 13.808594 C 57.730469 13.425781 57.421875 13.117188 57.042969 13.117188 " fill-opacity="1" fill-rule="nonzero"/><path fill="#ffffff" d="M 33.097656 24.097656 C 33.480469 23.851562 34.085938 23.375 33.902344 22.878906 C 33.851562 22.738281 33.753906 22.636719 33.617188 22.585938 C 33.167969 22.417969 32.421875 22.820312 32.390625 22.835938 C 32.351562 22.859375 32.339844 22.90625 32.359375 22.945312 C 32.378906 22.984375 32.425781 22.996094 32.464844 22.976562 C 32.472656 22.972656 33.179688 22.589844 33.5625 22.734375 C 33.65625 22.769531 33.71875 22.835938 33.757812 22.933594 C 33.90625 23.335938 33.304688 23.792969 32.914062 24.027344 L 33.222656 23.144531 C 33.234375 23.105469 33.214844 23.058594 33.171875 23.046875 C 33.132812 23.03125 33.085938 23.050781 33.074219 23.09375 L 31.757812 26.847656 C 31.742188 26.886719 31.765625 26.933594 31.804688 26.949219 C 31.8125 26.949219 31.824219 26.953125 31.832031 26.953125 C 31.863281 26.953125 31.894531 26.933594 31.90625 26.898438 L 32.828125 24.269531 C 33.089844 24.246094 34.34375 24.179688 34.472656 24.933594 C 34.519531 25.226562 34.425781 25.53125 34.1875 25.839844 C 33.570312 26.648438 32.128906 27.300781 30.683594 27.433594 C 30.640625 27.4375 30.609375 27.476562 30.613281 27.519531 C 30.617188 27.558594 30.648438 27.589844 30.691406 27.589844 C 30.691406 27.589844 30.695312 27.589844 30.695312 27.589844 C 32.183594 27.457031 33.671875 26.777344 34.3125 25.9375 C 34.574219 25.59375 34.683594 25.238281 34.625 24.910156 C 34.503906 24.1875 33.601562 24.09375 33.097656 24.097656 " fill-opacity="1" fill-rule="nonzero"/><path fill="#ffffff" d="M 44.714844 25.035156 C 44.421875 25.332031 44.199219 25.410156 44.164062 25.394531 C 44.132812 25.34375 44.210938 25.015625 44.476562 24.75 C 44.691406 24.535156 44.914062 24.46875 45.015625 24.46875 C 45.039062 24.46875 45.058594 24.472656 45.066406 24.480469 C 45.070312 24.492188 45.066406 24.527344 45.046875 24.582031 C 45.023438 24.613281 45 24.65625 44.976562 24.710938 C 44.921875 24.800781 44.835938 24.910156 44.714844 25.035156 M 45.941406 24.847656 C 45.910156 24.816406 45.859375 24.824219 45.832031 24.855469 C 45.257812 25.5625 45.101562 25.46875 45.085938 25.457031 C 45.015625 25.398438 45.015625 25.046875 45.101562 24.808594 C 45.210938 24.636719 45.273438 24.464844 45.179688 24.371094 C 45.050781 24.242188 44.667969 24.332031 44.367188 24.636719 C 44.261719 24.742188 44.171875 24.871094 44.105469 25 C 43.265625 25.570312 43.109375 25.492188 43.085938 25.472656 C 43.058594 25.449219 43 25.320312 43.347656 24.695312 L 43.371094 24.65625 C 43.390625 24.617188 43.378906 24.570312 43.339844 24.550781 C 43.300781 24.527344 43.253906 24.542969 43.234375 24.582031 L 43.210938 24.617188 C 42.996094 25.003906 42.800781 25.421875 42.980469 25.589844 C 43.011719 25.621094 43.0625 25.644531 43.140625 25.644531 C 43.289062 25.644531 43.542969 25.554688 44.015625 25.25 C 43.996094 25.34375 43.992188 25.445312 44.050781 25.503906 C 44.085938 25.539062 44.125 25.550781 44.175781 25.550781 C 44.367188 25.550781 44.65625 25.316406 44.824219 25.148438 C 44.84375 25.128906 44.863281 25.105469 44.882812 25.085938 C 44.859375 25.289062 44.878906 25.492188 44.988281 25.578125 C 45.027344 25.613281 45.074219 25.628906 45.125 25.628906 C 45.316406 25.628906 45.582031 25.410156 45.953125 24.957031 C 45.980469 24.921875 45.976562 24.875 45.941406 24.847656 " fill-opacity="1" fill-rule="nonzero"/><path fill="#ffffff" d="M 35.476562 25 C 35.1875 25.292969 34.964844 25.371094 34.929688 25.355469 C 34.898438 25.304688 34.976562 24.980469 35.242188 24.710938 C 35.453125 24.496094 35.679688 24.429688 35.78125 24.429688 C 35.804688 24.429688 35.824219 24.433594 35.832031 24.441406 C 35.835938 24.457031 35.828125 24.496094 35.800781 24.558594 C 35.796875 24.566406 35.792969 24.570312 35.789062 24.578125 C 35.78125 24.589844 35.773438 24.609375 35.765625 24.632812 C 35.710938 24.726562 35.621094 24.855469 35.476562 25 M 37.683594 24.742188 C 37.679688 24.699219 37.640625 24.667969 37.597656 24.671875 C 37.535156 24.679688 37.519531 24.660156 37.476562 24.609375 C 37.429688 24.550781 37.363281 24.472656 37.214844 24.472656 C 37.15625 24.472656 37.023438 24.480469 36.882812 24.566406 L 36.96875 24.367188 C 36.984375 24.324219 36.964844 24.277344 36.925781 24.261719 C 36.886719 24.246094 36.839844 24.261719 36.824219 24.304688 L 36.523438 25.015625 C 36.515625 25.015625 36.511719 25.015625 36.507812 25.019531 C 35.964844 25.425781 35.832031 25.359375 35.8125 25.34375 C 35.726562 25.273438 35.808594 24.945312 35.90625 24.703125 C 35.988281 24.558594 36.023438 24.414062 35.941406 24.332031 C 35.816406 24.203125 35.433594 24.292969 35.128906 24.601562 C 34.839844 24.894531 34.679688 25.332031 34.816406 25.46875 C 34.847656 25.5 34.890625 25.515625 34.9375 25.515625 C 35.132812 25.515625 35.421875 25.277344 35.589844 25.109375 C 35.601562 25.09375 35.617188 25.078125 35.632812 25.0625 C 35.605469 25.226562 35.613281 25.386719 35.710938 25.464844 C 35.753906 25.5 35.804688 25.515625 35.863281 25.515625 C 35.996094 25.515625 36.171875 25.4375 36.40625 25.285156 L 36.304688 25.527344 C 36.285156 25.566406 36.304688 25.613281 36.34375 25.628906 C 36.355469 25.636719 36.367188 25.636719 36.375 25.636719 C 36.40625 25.636719 36.433594 25.617188 36.449219 25.589844 L 36.664062 25.078125 C 36.84375 24.65625 37.128906 24.625 37.210938 24.628906 C 37.289062 24.628906 37.316406 24.664062 37.359375 24.710938 C 37.40625 24.769531 37.472656 24.847656 37.617188 24.828125 C 37.660156 24.824219 37.6875 24.785156 37.683594 24.742188 " fill-opacity="1" fill-rule="nonzero"/><path fill="#ffffff" d="M 40.695312 25 C 40.402344 25.292969 40.183594 25.371094 40.148438 25.355469 C 40.117188 25.304688 40.195312 24.980469 40.457031 24.710938 C 40.671875 24.496094 40.894531 24.429688 40.996094 24.429688 C 41.023438 24.429688 41.039062 24.433594 41.046875 24.441406 C 41.054688 24.457031 41.046875 24.496094 41.019531 24.558594 C 41.015625 24.566406 41.011719 24.570312 41.007812 24.578125 C 41 24.589844 40.992188 24.609375 40.984375 24.632812 C 40.929688 24.726562 40.839844 24.855469 40.695312 25 M 42.953125 24.828125 C 42.953125 24.785156 42.917969 24.75 42.875 24.75 C 42.816406 24.75 42.796875 24.726562 42.761719 24.675781 C 42.722656 24.609375 42.664062 24.523438 42.519531 24.503906 C 42.460938 24.496094 42.328125 24.488281 42.175781 24.558594 L 42.285156 24.371094 C 42.308594 24.332031 42.292969 24.285156 42.257812 24.261719 C 42.21875 24.242188 42.171875 24.253906 42.148438 24.292969 L 41.734375 25.015625 C 41.730469 25.019531 41.730469 25.019531 41.726562 25.019531 C 41.183594 25.425781 41.050781 25.359375 41.027344 25.34375 C 40.945312 25.273438 41.023438 24.945312 41.125 24.703125 C 41.207031 24.558594 41.242188 24.414062 41.160156 24.332031 C 41.035156 24.203125 40.652344 24.292969 40.347656 24.601562 C 40.058594 24.894531 39.898438 25.332031 40.035156 25.46875 C 40.066406 25.5 40.109375 25.515625 40.15625 25.515625 C 40.347656 25.515625 40.640625 25.277344 40.808594 25.109375 C 40.820312 25.09375 40.835938 25.078125 40.851562 25.0625 C 40.824219 25.226562 40.832031 25.386719 40.929688 25.464844 C 40.972656 25.5 41.023438 25.515625 41.082031 25.515625 C 41.199219 25.515625 41.355469 25.453125 41.554688 25.328125 L 41.488281 25.445312 C 41.46875 25.480469 41.480469 25.53125 41.519531 25.550781 C 41.53125 25.558594 41.542969 25.5625 41.558594 25.5625 C 41.585938 25.5625 41.609375 25.546875 41.625 25.523438 L 41.902344 25.039062 C 42.128906 24.640625 42.414062 24.648438 42.496094 24.660156 C 42.574219 24.671875 42.597656 24.707031 42.632812 24.761719 C 42.671875 24.824219 42.730469 24.90625 42.875 24.90625 C 42.917969 24.90625 42.953125 24.871094 42.953125 24.828125 " fill-opacity="1" fill-rule="nonzero"/><path fill="#ffffff" d="M 38.453125 24.917969 C 38.378906 25.246094 38.183594 25.460938 38.027344 25.53125 C 37.972656 25.558594 37.894531 25.578125 37.820312 25.539062 C 37.707031 25.476562 37.773438 25.144531 37.855469 24.933594 L 37.925781 24.714844 C 37.988281 24.535156 38.101562 24.449219 38.238281 24.488281 C 38.382812 24.527344 38.503906 24.703125 38.453125 24.917969 M 38.28125 24.335938 C 38.210938 24.3125 38.128906 24.3125 38.046875 24.34375 L 38.28125 23.621094 C 38.296875 23.578125 38.273438 23.535156 38.234375 23.523438 C 38.191406 23.507812 38.148438 23.53125 38.132812 23.570312 L 37.78125 24.65625 C 37.78125 24.660156 37.777344 24.664062 37.777344 24.667969 C 37.777344 24.671875 37.777344 24.671875 37.777344 24.675781 L 37.710938 24.878906 C 37.683594 24.945312 37.460938 25.523438 37.746094 25.679688 C 37.796875 25.707031 37.851562 25.71875 37.910156 25.71875 C 37.96875 25.71875 38.027344 25.707031 38.089844 25.675781 C 38.324219 25.570312 38.527344 25.289062 38.605469 24.957031 C 38.679688 24.644531 38.5 24.398438 38.28125 24.335938 " fill-opacity="1" fill-rule="nonzero"/><path fill="#ffffff" d="M 39 25.011719 C 39.109375 24.644531 39.335938 24.546875 39.453125 24.570312 C 39.488281 24.578125 39.550781 24.597656 39.582031 24.65625 C 39.605469 24.699219 39.605469 24.761719 39.578125 24.835938 C 39.484375 25.082031 39.132812 25.097656 38.980469 25.09375 C 38.984375 25.066406 38.992188 25.039062 39 25.011719 M 39.773438 25.289062 C 39.519531 25.492188 39.277344 25.550781 39.117188 25.441406 C 39.054688 25.398438 39.011719 25.332031 38.988281 25.25 C 39.183594 25.257812 39.601562 25.226562 39.722656 24.890625 C 39.777344 24.742188 39.75 24.636719 39.71875 24.578125 C 39.675781 24.496094 39.589844 24.4375 39.484375 24.417969 C 39.308594 24.378906 38.992188 24.492188 38.847656 24.96875 C 38.777344 25.207031 38.847656 25.449219 39.03125 25.574219 C 39.082031 25.605469 39.171875 25.65625 39.304688 25.65625 C 39.449219 25.65625 39.640625 25.601562 39.871094 25.414062 C 39.902344 25.386719 39.910156 25.335938 39.882812 25.304688 C 39.855469 25.269531 39.804688 25.261719 39.773438 25.289062 " fill-opacity="1" fill-rule="nonzero"/><path fill="#ffffff" d="M 43.433594 24.46875 C 43.488281 24.46875 43.527344 24.425781 43.527344 24.375 C 43.527344 24.324219 43.488281 24.28125 43.433594 24.28125 C 43.382812 24.28125 43.34375 24.324219 43.34375 24.375 C 43.34375 24.425781 43.382812 24.46875 43.433594 24.46875 " fill-opacity="1" fill-rule="nonzero"/></svg>